PathFileType	4	(X/Y/Z)	C:\Users\WrightLab\Desktop\Jo\P3_7.trc
DataRate	CameraRate	NumFrames	NumMarkers	Units	OrigDataRate	OrigDataStartFrame	OrigNumFrames
100.00	100.00	       21	19	mm	100.00	289	       576
Frame#	Time	Headset_Front			Headset_Back			Headset_Left			Headset_Right			Left_Shoulder			Right_Shoulder			Sternum			C7			Left Elbow			Right Elbow			Left Wrist			Right Wrist			Left ASIS			Right ASIS			S2			Left Knee			Right Knee			Left Ankle			Right Ankle			
		X1	Y1	Z1	X2	Y2	Z2	X3	Y3	Z3	X4	Y4	Z4	X5	Y5	Z5	X6	Y6	Z6	X7	Y7	Z7	X8	Y8	Z8	X9	Y9	Z9	X10	Y10	Z10	X11	Y11	Z11	X12	Y12	Z12	X13	Y13	Z13	X14	Y14	Z14	X15	Y15	Z15	X16	Y16	Z16	X17	Y17	Z17	X18	Y18	Z18	X19	Y19	Z19	

289	2.880	-93.69961	1508.88623	746.14160				-27.02025	1566.63892	556.55725	-220.59457	1539.47522	669.71399	19.15794	1340.24805	451.29953	-308.10263	1349.67334	585.66235	-87.41383	1222.52869	633.54810	-170.18625	1393.27893	472.17038	112.07250	1015.89258	442.58267	-389.07397	1004.98444	601.87042	160.14204	852.46027	566.95941	-342.32947	832.14465	746.99823	-9.85476	858.17828	537.41211	-220.84138	864.07800	671.85675	-225.07567	944.39783	425.97513	-86.77798	449.78116	417.62000	-131.86237	464.88556	741.66180	-160.55775	131.88612	350.25800	-64.22115	137.68636	775.29199	
290	2.890	-90.36398	1508.26038	754.05383				-23.67362	1565.39417	566.41571	-217.25035	1538.42908	677.17297	23.70291	1338.75635	460.59265	-304.06592	1347.90430	593.53821	-82.87815	1222.06628	642.28973	-166.04683	1391.37195	482.96939	116.91724	1014.98981	452.03204	-385.47986	1003.72583	609.63007	165.34013	852.54138	577.19708	-338.69952	829.34631	755.13959	-4.81137	856.77423	546.22345	-215.74162	862.13379	681.39581	-219.49860	942.68018	435.00754	-84.03591	449.27136	422.34869	-127.92223	461.56943	745.83453	-159.74928	133.18585	350.94611	-52.48558	140.05539	792.93848	
291	2.900	-87.21752	1507.84961	761.99615				-20.17745	1564.48901	572.55804	-214.45116	1537.73035	684.31989	28.30926	1337.36389	469.66415	-299.94086	1346.04468	601.58282	-78.96056	1220.27917	651.21191	-161.45490	1389.42993	491.64151	122.05501	1013.90063	461.24695	-380.19467	1001.66602	617.34674	171.10391	851.82349	587.02655	-335.81000	827.29993	761.89331	0.95703	856.07996	556.02405	-211.02243	860.03204	689.06403	-214.37094	940.98779	442.11115	-80.32840	449.22946	427.93704	-125.09546	459.40604	751.83215	-158.62793	133.68294	352.06387	-41.81940	141.19853	808.82025	
292	2.910	-84.99732	1508.00757	770.31195				-16.69397	1563.11768	581.62183	-212.34932	1537.74060	691.95624	32.16712	1336.00732	478.25439	-296.33545	1344.41956	610.23230	-74.68971	1219.47498	660.86908	-157.03635	1388.01172	497.90714	126.34876	1012.40564	470.68399	-376.08591	999.71826	625.43390	175.10637	851.41882	596.95667	-332.30780	824.44440	769.45911	6.14504	854.34052	564.55377	-205.41342	857.93079	699.78937	-209.06192	938.98486	451.55164	-76.03828	448.69928	434.09610	-120.74075	457.56912	757.70081	-156.96690	134.53226	353.24161	-33.01065	142.62233	823.83563	
293	2.920	-81.90469	1507.85791	778.36426				-13.19199	1561.90613	590.73352	-209.35527	1537.19006	699.88721	36.46500	1334.58264	487.99384	-292.51212	1342.44556	618.31256	-70.39198	1218.33154	669.92999	-153.52956	1386.00647	509.23630	131.03140	1010.78241	479.71436	-371.54538	997.86670	633.09241	180.14560	850.51257	606.91235	-329.24826	822.07251	776.60687	12.13923	853.11060	574.21112	-201.34869	856.32288	709.04089	-203.66606	937.79987	460.53131	-71.58408	447.54828	440.35056	-116.93842	455.16257	763.85077	-156.13577	135.67303	354.25128	-24.80772	144.20900	835.12616	
294	2.930	-78.97583	1507.60620	786.48914				-10.51050	1561.24182	596.76154	-206.44405	1536.21033	707.42645	40.76374	1333.51587	497.18729	-288.93640	1340.84009	626.30798	-66.10781	1217.31152	678.99078	-149.12431	1384.66309	515.26959	135.18834	1009.55591	489.25070	-367.22922	995.90430	640.94183	184.29781	849.69897	616.63318	-325.84082	819.03320	783.86371	17.32125	851.94263	584.13269	-195.68402	854.05005	717.98651	-198.01541	935.54285	470.24741	-67.18706	447.20148	447.52698	-112.78985	453.57999	770.70093	-153.87033	137.50214	355.95807	-18.38276	143.60033	844.95502	
295	2.940	-75.98794	1507.87891	794.58514				-6.58126	1559.75720	606.63477	-203.41756	1535.76416	714.61371	44.65723	1332.10938	506.10770	-285.14243	1339.11523	635.03113	-62.61068	1216.75745	689.26221	-146.06688	1383.95618	524.13055	139.65671	1008.39069	498.59457	-362.98489	993.98743	649.00458	189.27789	849.05994	626.12769	-322.10391	816.72052	791.67279	23.18855	850.37012	594.18988	-189.59509	851.30835	726.25116	-193.08192	934.04559	479.74579	-62.00916	446.03809	455.18967	-108.84792	452.35574	779.03522	-152.15495	138.31636	357.25659	-13.64813	141.29311	851.62598	
296	2.950	-73.73829	1508.60925	803.01770				-3.85883	1559.21265	613.04620	-200.07536	1535.23328	722.32794	48.59435	1331.17517	515.63477	-281.89227	1337.34631	644.08990	-58.69143	1215.79785	698.67261	-141.87354	1382.01929	534.19525	143.47134	1007.25977	508.19016	-358.84262	992.03467	657.18280	193.42451	847.48920	635.55670	-320.08267	814.57172	798.89740	28.22871	848.84448	604.34875	-185.29745	850.51703	736.99414	-186.76500	932.18927	489.43207	-56.08076	445.55997	462.07581	-103.20178	451.15881	787.89288	-150.04187	140.49039	358.86154	-10.54220	138.13356	857.10022	
297	2.960	-70.89341	1509.10950	811.30823				-0.45645	1558.16968	621.78094	-197.36009	1535.09460	730.56708	52.61699	1330.08740	525.39319	-278.50516	1335.92883	652.78046	-54.31073	1214.72754	708.67017	-138.49162	1381.07642	542.76740	147.22235	1005.95410	517.51147	-354.73572	990.56006	665.65997	197.03572	846.74615	645.16101	-316.10776	812.34711	806.17224	33.94109	848.28314	614.52216	-181.27197	849.01215	747.73114	-181.51164	931.09393	499.13657	-49.51522	444.77274	471.03415	-97.46226	450.48105	797.32996	-147.65080	143.10432	359.79184	-7.35909	133.99089	860.18640	
298	2.970	-68.19741	1509.91443	819.64056				2.62868	1557.17676	631.30713	-194.43115	1534.63306	738.48779	56.34022	1329.73657	534.73834	-275.08887	1334.07617	661.87152	-51.53175	1214.33777	718.49597	-134.59363	1378.91418	552.24268	150.87845	1005.47644	526.92273	-350.73730	988.94037	673.89178	200.98570	845.33136	654.17462	-312.25153	808.98798	812.72504	38.59616	846.68994	625.63092	-175.85893	848.45093	755.97931	-175.51236	930.00702	508.77228	-43.96863	443.64175	480.10403	-92.50961	449.36581	806.89661	-144.55228	145.21353	362.13544	-5.82263	129.59300	860.38354	
299	2.980	-65.49240	1510.60242	828.13489				5.34022	1556.93188	637.08215	-191.27122	1534.53198	746.22870	60.02742	1328.47168	544.86578	-271.63300	1333.09631	671.04236	-48.34440	1214.07007	728.75275	-132.78757	1380.28259	558.96637	154.35243	1004.56665	536.32062	-346.80508	987.54584	682.66174	204.80295	844.51917	662.82971	-309.51477	807.13202	820.50848	43.74060	846.17712	636.32275	-170.48415	846.92426	766.81622	-168.83070	928.38904	518.93488	-37.64403	442.78879	489.71451	-87.88679	448.38312	816.30048	-141.78012	147.38091	364.73654	-3.81609	125.97652	863.51019	
300	2.990	-63.11834	1511.68555	836.80023				8.87134	1556.10242	647.78265	-188.61310	1534.70020	754.62946	63.46392	1328.18286	554.96643	-268.40884	1331.62109	680.34210	-44.05082	1213.94727	738.91193	-127.12064	1376.99670	574.38513	157.53065	1004.04022	545.62177	-342.67578	986.43610	690.87579	207.92416	843.32593	672.24207	-305.81247	805.03937	827.95264	49.28057	844.91437	647.52881	-167.37674	847.92041	777.64093	-163.40637	927.97046	529.09772	-30.97731	442.60120	499.08200	-83.13457	446.17404	825.29852	-138.30760	150.24654	366.90775	0.63349	124.99335	868.98901	
301	3.000	-60.46918	1512.96240	845.63684				11.29532	1556.19043	654.25226	-185.78647	1535.31531	762.84796	67.18615	1327.97131	564.51196	-265.19162	1330.64453	689.76648	-40.98609	1214.14600	748.91479	-123.87901	1376.39465	583.31696	160.47884	1003.10059	555.76453	-338.89539	984.88257	699.49445	211.49985	842.54803	680.55835	-302.79910	802.96918	835.40198	54.45488	844.68250	658.91650	-162.19485	847.83173	787.78857	-157.16878	926.85229	538.87524	-23.32515	441.19580	510.09393	-78.18033	444.20685	834.40820	-134.41771	154.40205	370.67429	2.91138	124.43031	874.73871	
302	3.010	-57.97561	1514.56873	854.61383				14.50675	1556.12134	663.64587	-182.40257	1535.65308	771.59149	70.34588	1328.08667	574.07635	-262.14932	1329.85425	699.00842	-37.20224	1214.45178	758.98541	-123.44321	1378.60754	586.87970	163.47594	1003.37701	564.78577	-334.93719	984.27728	707.97064	214.02936	841.37427	688.46423	-298.70801	801.34412	842.80847	59.98013	844.24847	669.66284	-157.42278	847.75604	798.51392	-150.79855	926.54663	549.77386	-15.89809	441.27829	522.23047	-74.68060	444.19522	843.09442	-130.63992	158.05937	375.42719	5.55353	122.86456	877.98651	
303	3.020	-55.19819	1516.57373	863.58386				17.62554	1556.48889	672.75732	-179.83907	1537.33936	780.14178	74.23956	1328.51086	584.10370	-259.00525	1329.49060	708.96063	-33.85004	1215.10767	768.89673	-118.88638	1377.35266	600.27307	166.87003	1003.75012	574.15619	-331.31409	983.74530	716.71973	217.69208	840.78381	696.86035	-296.01233	800.16583	850.13831	66.41055	845.54260	683.28552	-152.88570	848.21246	809.37219	-144.43625	926.47809	560.09967	-8.58983	440.95374	533.49738	-70.84937	445.61346	851.87177	-126.33720	162.93971	379.87225	7.38961	121.51495	881.13434	
304	3.030	-52.61871	1518.62927	872.72638				20.12845	1557.53027	681.11169	-177.19911	1539.02271	789.10547	77.05354	1329.65417	594.25360	-256.01859	1329.32385	719.18329	-30.49396	1216.06677	778.82910	-115.56223	1376.89648	611.01532	169.80888	1004.07343	583.60358	-327.86856	983.44025	725.56726	220.02702	840.49176	704.50671	-291.91864	799.12775	858.23450	71.63468	846.76263	696.23798	-148.56885	849.58014	819.34125	-138.70599	927.02246	570.78436	0.16450	441.31110	545.43787	-66.54397	448.03381	861.25562	-121.72408	168.48404	384.97195	9.04870	122.13293	884.52911	
305	3.040	-50.14257	1520.97388	882.08514				23.13226	1558.55261	690.54547	-174.00647	1540.06628	797.56470	80.29336	1331.15100	604.35156	-252.93962	1329.67322	729.26813	-27.69544	1217.65295	789.00586	-113.31142	1379.14014	619.68115	171.83830	1005.47400	592.44666	-324.79886	984.08514	734.69482	222.11229	839.73407	712.32056	-288.94110	798.93982	866.22833	76.11012	847.62549	708.93689	-143.85744	851.04382	828.35126	-131.78801	928.36157	580.94684	9.32440	441.66724	558.67841	-61.25406	450.46677	870.36243	-115.66513	173.69325	391.50839	9.51900	122.33087	887.60028	
306	3.050	-47.60999	1523.49426	891.53992				25.65029	1559.85449	698.75092	-171.36891	1542.09070	806.88531	83.81466	1333.09204	613.77576	-250.02277	1330.57068	739.24384	-24.01109	1219.81958	799.08032	-109.75495	1379.92932	630.13135	173.97736	1006.80896	602.30884	-321.43298	985.30048	743.75885	224.95209	840.43268	719.55682	-285.45193	799.20190	873.63690	81.19185	849.71655	723.11096	-140.90639	853.14319	838.65137	-126.00226	930.04242	591.53088	19.09691	442.01514	572.10925	-56.52928	452.43039	880.01849	-109.17713	179.32153	398.42548	9.07387	122.55022	889.46240	
307	3.060	-45.30906	1526.13501	901.12555							-169.12517	1544.57874	816.66040	86.43392	1335.56067	623.38898	-246.96172	1332.09290	748.71252	-21.02888	1222.11707	809.21820	-106.84755	1381.92468	638.80035	175.46751	1008.70355	611.94714	-318.52084	986.84705	752.92969	226.25267	841.18994	727.23956	-282.20200	799.98767	881.31732	85.27597	851.70105	735.15851	-136.10483	856.05975	848.24634	-119.56087	932.25671	600.94421	29.79466	442.58179	586.46326	-53.16431	453.62442	888.12659	-102.02544	185.31393	407.42331	10.39867	123.31244	891.62732	
308	3.070	-43.06094	1528.65076	910.81201							-166.16324	1546.61621	825.44910	90.26133	1338.51892	633.57550	-243.75616	1333.72070	758.50146	-16.65177	1223.99072	818.91473	-103.79008	1383.98669	648.77283	178.71623	1011.07501	620.68890	-315.76309	988.91803	762.40210	227.20439	842.00946	734.55359	-278.87131	801.01849	889.52307	89.96436	853.67700	748.18768	-133.63217	858.84680	858.25342	-113.89288	934.59674	611.05493	40.73109	442.66180	602.79224	-50.47481	453.50250	896.54303	-93.67457	191.15355	417.41965	12.50770	123.68104	893.83337	
309	3.080	-40.83680	1531.05798	920.41211							-164.05875	1548.93506	835.02899	93.36701	1341.18579	642.50330	-240.54204	1335.61780	768.23303	-13.94896	1227.50037	829.38599	-100.57512	1385.53821	659.53381	180.73259	1013.72211	629.29327	-313.38434	990.91345	770.61914	228.57359	842.93518	742.23279	-275.38303	802.42676	897.73999	92.41557	856.09680	760.72595	-131.23122	862.50775	866.84900	-107.59949	937.17499	620.37201	51.78538	442.63748	620.05969	-49.46869	454.45798	903.20453	-84.63624	197.19771	427.30466	12.04895	123.88395	895.81073	
